<svg xmlns="http://www.w3.org/2000/svg" viewBox="0 0 128 128" role="img" aria-label="NaviHub icon">
  <defs>
    <linearGradient id="warm" x1="40" y1="32" x2="90" y2="98" gradientUnits="userSpaceOnUse">
      <stop offset="0" stop-color="#ffb25f"/>
      <stop offset="0.58" stop-color="#f26b3a"/>
      <stop offset="1" stop-color="#d9412f"/>
    </linearGradient>
    <linearGradient id="cool" x1="36" y1="33" x2="94" y2="92" gradientUnits="userSpaceOnUse">
      <stop offset="0" stop-color="#7fb7ff"/>
      <stop offset="1" stop-color="#2563eb"/>
    </linearGradient>
    <filter id="shadow" x="-20%" y="-20%" width="140%" height="150%">
      <feDropShadow dx="0" dy="6" stdDeviation="6" flood-color="#24262d" flood-opacity="0.12"/>
    </filter>
  </defs>
  <path d="M33 82 L58 39 C60.8 34.2 67.8 34.2 70.7 38.9 L96 82 C99 87.1 95.3 93.5 89.4 93.5 H39.7 C33.8 93.5 30 87.2 33 82Z" fill="url(#warm)" filter="url(#shadow)"/>
  <path d="M45 80 L63.8 48.8 L83 80 H45Z" fill="#fff" opacity="0.20"/>
  <circle cx="64" cy="64" r="11.5" fill="#fff"/>
  <circle cx="64" cy="64" r="6.2" fill="url(#cool)"/>
  <path d="M64 52 V32" stroke="#2563eb" stroke-width="7" stroke-linecap="round"/>
  <path d="M53.8 69.4 L36 80" stroke="#2563eb" stroke-width="7" stroke-linecap="round"/>
  <path d="M74.2 69.4 L92 80" stroke="#2563eb" stroke-width="7" stroke-linecap="round"/>
  <circle cx="64" cy="30" r="8" fill="#ffffff" stroke="#dedfe3" stroke-width="1.5"/>
  <rect x="27" y="73" width="17" height="17" rx="5" fill="#ffffff" stroke="#dedfe3" stroke-width="1.5"/>
  <rect x="84" y="73" width="17" height="17" rx="5" fill="#ffffff" stroke="#dedfe3" stroke-width="1.5"/>
  <path d="M31 104 C48 113 80 113 97 104" fill="none" stroke="#9aa0aa" stroke-width="5" stroke-linecap="round" opacity="0.22"/>
</svg>
