<svg xmlns="http://www.w3.org/2000/svg" viewBox="0 0 128 128" role="img" aria-label="NaviHub grand icon concept">
  <defs>
    <linearGradient id="base" x1="20" y1="8" x2="108" y2="120" gradientUnits="userSpaceOnUse">
      <stop offset="0" stop-color="#1f2937"/>
      <stop offset="0.45" stop-color="#111827"/>
      <stop offset="1" stop-color="#0b1020"/>
    </linearGradient>
    <radialGradient id="aura" cx="0" cy="0" r="1" gradientTransform="matrix(68 72 -72 68 38 25)" gradientUnits="userSpaceOnUse">
      <stop offset="0" stop-color="#60a5fa" stop-opacity="0.62"/>
      <stop offset="0.42" stop-color="#2563eb" stop-opacity="0.18"/>
      <stop offset="1" stop-color="#2563eb" stop-opacity="0"/>
    </radialGradient>
    <radialGradient id="warm-aura" cx="0" cy="0" r="1" gradientTransform="matrix(58 58 -58 58 87 89)" gradientUnits="userSpaceOnUse">
      <stop offset="0" stop-color="#f26b3a" stop-opacity="0.52"/>
      <stop offset="0.6" stop-color="#f26b3a" stop-opacity="0.12"/>
      <stop offset="1" stop-color="#f26b3a" stop-opacity="0"/>
    </radialGradient>
    <linearGradient id="hub" x1="44" y1="38" x2="83" y2="86" gradientUnits="userSpaceOnUse">
      <stop offset="0" stop-color="#ffffff"/>
      <stop offset="0.52" stop-color="#dbeafe"/>
      <stop offset="1" stop-color="#93c5fd"/>
    </linearGradient>
    <linearGradient id="orbit" x1="31" y1="34" x2="97" y2="95" gradientUnits="userSpaceOnUse">
      <stop offset="0" stop-color="#7dd3fc"/>
      <stop offset="0.42" stop-color="#2563eb"/>
      <stop offset="1" stop-color="#f26b3a"/>
    </linearGradient>
    <linearGradient id="node-warm" x1="76" y1="75" x2="101" y2="101" gradientUnits="userSpaceOnUse">
      <stop offset="0" stop-color="#ffb25f"/>
      <stop offset="1" stop-color="#f26b3a"/>
    </linearGradient>
    <filter id="tile-shadow" x="-20%" y="-16%" width="140%" height="150%">
      <feDropShadow dx="0" dy="12" stdDeviation="11" flood-color="#030712" flood-opacity="0.26"/>
    </filter>
    <filter id="glow" x="-70%" y="-70%" width="240%" height="240%">
      <feGaussianBlur stdDeviation="3.5" result="blur"/>
      <feMerge>
        <feMergeNode in="blur"/>
        <feMergeNode in="SourceGraphic"/>
      </feMerge>
    </filter>
  </defs>

  <g filter="url(#tile-shadow)">
    <rect x="0" y="0" width="128" height="128" rx="29" fill="url(#base)"/>
    <rect x="0" y="0" width="128" height="128" rx="29" fill="url(#aura)"/>
    <rect x="0" y="0" width="128" height="128" rx="29" fill="url(#warm-aura)"/>
    <rect x="1" y="1" width="126" height="126" rx="28" fill="none" stroke="#030712" stroke-opacity="0.32" stroke-width="2"/>
    <rect x="3" y="3" width="122" height="122" rx="26" fill="none" stroke="#334155" stroke-opacity="0.18" stroke-width="1"/>
  </g>

  <path d="M33 74 C42 43 83 33 97 61" fill="none" stroke="url(#orbit)" stroke-width="7.5" stroke-linecap="round" opacity="0.92"/>
  <path d="M95 55 L100 66 L88.6 64.8" fill="none" stroke="#f8fafc" stroke-width="4.2" stroke-linecap="round" stroke-linejoin="round" opacity="0.92"/>
  <path d="M33 78 C48 100 82 101 96 77" fill="none" stroke="#f26b3a" stroke-width="7.5" stroke-linecap="round" opacity="0.88"/>

  <path d="M64 55 L39 78" fill="none" stroke="#dbeafe" stroke-width="5.5" stroke-linecap="round" opacity="0.92"/>
  <path d="M64 55 L89 78" fill="none" stroke="#dbeafe" stroke-width="5.5" stroke-linecap="round" opacity="0.92"/>
  <path d="M64 55 V34" fill="none" stroke="#dbeafe" stroke-width="5.5" stroke-linecap="round" opacity="0.92"/>

  <circle cx="64" cy="55" r="16.5" fill="url(#hub)" filter="url(#glow)"/>
  <circle cx="64" cy="55" r="9.2" fill="#2563eb"/>
  <path d="M59.3 60.9 L64 44.5 L68.7 60.9 L64 58 L59.3 60.9Z" fill="#ffffff"/>

  <circle cx="64" cy="32.5" r="9.5" fill="#ffffff"/>
  <rect x="27.5" y="73.5" width="23" height="23" rx="7" fill="#ffffff"/>
  <rect x="77.5" y="73.5" width="23" height="23" rx="7" fill="#ffffff"/>

  <circle cx="64" cy="32.5" r="8.1" fill="#111827"/>
  <path d="M59.7 31 H68.3" stroke="#60a5fa" stroke-width="2.5" stroke-linecap="round"/>
  <path d="M59.7 35 H68.3" stroke="#60a5fa" stroke-width="2.5" stroke-linecap="round"/>

  <rect x="30" y="76" width="18" height="18" rx="5.5" fill="#111827"/>
  <path d="M35 81.2 L38.5 84.8 L35 88.4" fill="none" stroke="#f8fafc" stroke-width="2.4" stroke-linecap="round" stroke-linejoin="round"/>
  <path d="M40.6 88.4 H44" stroke="#f8fafc" stroke-width="2.4" stroke-linecap="round"/>

  <rect x="80" y="76" width="18" height="18" rx="5.5" fill="url(#node-warm)"/>
  <path d="M85.3 82.2 H92.7" stroke="#ffffff" stroke-width="2.3" stroke-linecap="round"/>
  <path d="M85.3 86 H92.7" stroke="#ffffff" stroke-width="2.3" stroke-linecap="round"/>
  <path d="M85.3 89.8 H90.6" stroke="#ffffff" stroke-width="2.3" stroke-linecap="round"/>
</svg>
